# xmcd
#
# Track frame offsets:
#	182
#	15420
#	25917
#	42117
#	58302
#	71310
#	86187
#	95427
#	105150
#	118677
#	131005
#	150050
#	161682
#	176390
#
# Disc length: 2507
#
# Revision: 2
# Processed by: cddbd v1.5.1PL0 Copyright (c) Steve Scherf et al.
# Submitted via: audiograbber 1.83.01
# Normalized: r1:DSETVAR1
#
DISCID=a209c90e
DTITLE=Various Artist - Classic Country - Volume 3
DYEAR=1900
DGENRE=Country
TTITLE0=Dolly Parton - But You Know I Love You
TTITLE1=Jerry Reed - When You're Hot, You're Hot
TTITLE2=Leon Everette - It's Not Supposed To Be That Way
TTITLE3=Dottie West - Bigger They Are, Harder They Fall
TTITLE4=Razzy Bailey - True Life Country Music
TTITLE5=Ronnie Milsap - Cowboys And Clowns
TTITLE6=Charley Pride - Honky Tonk Blues
TTITLE7=Dolly Parton - You're The One That Taught Me To Swing
TTITLE8=Ronnie Milsap - A Legend In My Time
TTITLE9=Willie Nelson - You Ought To Hear Me Cry
TTITLE10=Alabama - Why Lady Why
TTITLE11=Waylon Jennings - Mammas, Don't Let The Babies Grow Up To Be Cowboys
TTITLE12=Charley Pride - Birgers and Fries
TTITLE13=George Hamilton IV - She's A Little Bit Country
EXTD=
EXTT0=
EXTT1=
EXTT2=
EXTT3=
EXTT4=
EXTT5=
EXTT6=
EXTT7=
EXTT8=
EXTT9=
EXTT10=
EXTT11=
EXTT12=
EXTT13=
PLAYORDER=
